<svg xmlns="http://www.w3.org/2000/svg" height="24" viewBox="0 -960 960 960" width="24" fill="#1f4d80"><path d="M826-585l-56-56 30-31-128-128-31 30-57-57 30-31q23-23 57-22.5t57 23.5l129 129q23 23 23 56.5T857-615l-31 30zM346-104q-23 23-56.5 23T233-104L104-233q-23-23-23-56.5t23-56.5l30-30 57 57-31 30 129 129 30-31 57 57-30 30zm397-336l57-57-303-303-57 57 303 303zM463-160l57-58-302-302-58 57 303 303zm-6-234l110-109-64-64-109 110 63 63zm63 290q-23 23-57 23t-57-23L104-406q-23-23-23-57t23-57l57-57q23-23 56.5-23t56.5 23l63 63 110-110-63-62q-23-23-23-57t23-57l57-57q23-23 56.5-23t56.5 23l303 303q23 23 23 56.5T857-441l-57 57q-23 23-57 23t-57-23l-62-63-110 110 63 63q23 23 23 56.5T577-161l-57 57z"/></svg>